<?xml version="1.0" encoding="UTF-8" standalone="no"?>
<!-- Created with Inkscape (http://www.inkscape.org/) -->

<svg
   version="1.1"
   id="svg2"
   width="5333.3335"
   height="5333.3335"
   viewBox="0 0 5333.3335 5333.3335"
   sodipodi:docname="vecteezy_new-file-empty-state-single-isolated-icon-with-flat-style_11537831.eps"
   xmlns:inkscape="http://www.inkscape.org/namespaces/inkscape"
   xmlns:sodipodi="http://sodipodi.sourceforge.net/DTD/sodipodi-0.dtd"
   xmlns="http://www.w3.org/2000/svg"
   xmlns:svg="http://www.w3.org/2000/svg">
  <defs
     id="defs6" />
  <sodipodi:namedview
     id="namedview4"
     pagecolor="#ffffff"
     bordercolor="#000000"
     borderopacity="0.25"
     inkscape:showpageshadow="2"
     inkscape:pageopacity="0.0"
     inkscape:pagecheckerboard="0"
     inkscape:deskcolor="#d1d1d1" />
  <g
     id="g8"
     inkscape:groupmode="layer"
     inkscape:label="ink_ext_XXXXXX"
     transform="matrix(1.3333333,0,0,-1.3333333,0,5333.3333)">
    <g
       id="g10"
       transform="scale(0.1)">
      
      <path
         d="m 10756.2,34556.3 c 0,166.2 65.7,325 183.2,441.8 116.9,117.5 276.2,183.2 441.8,183.2 2805.1,0 14096.3,0 14096.3,0 l 7153.8,-7932.6 v -9970.6 c 0,0 22.5,-8235.6 -2316.9,-12167.5 -113.8,-180.6 -312.5,-290 -526.3,-290 -2391.8,-1.9 -16592.5,-1.9 -20562.47,-1.9 -218.75,0 -421.88,115 -535,303.2 -113.13,188.1 -118.75,421.8 -15.63,615 1939.4,4211.2 2081.2,11541.2 2081.2,11541.2 v 17278.2"
         style="fill:#cadcf0;fill-opacity:1;fill-rule:evenodd;stroke:none"
         id="path14" />
      <path
         d="m 32631.3,17265.6 c 0,0 22.5,-8235.6 -2316.9,-12167.5 -113.8,-180.6 -312.5,-290 -526.3,-290 -2391.8,-1.9 -16592.5,-1.9 -20562.47,-1.9 -218.75,0 -421.88,115.7 -535,303.8 -113.13,187.5 -118.75,421.2 -15.63,615 l 24.38,53.7 C 16395.6,5416.9 27571.9,6765 29043.8,7341.2 c 1572.5,615.7 3556.2,6523.2 3586.8,9846.9 l 0.7,77.5"
         style="fill:#a4bbdb;fill-opacity:1;fill-rule:evenodd;stroke:none"
         id="path16" />
      <path
         d="m 32631.3,27248.7 c -1897.5,749.4 -3906.3,770.7 -5968.2,451.9 -191.2,-30 -385.6,30.7 -526.2,164.4 -140.6,133.7 -210.6,325 -190,517.5 226.2,2308.8 -1.9,4567.5 -469.4,6798.8 3023.8,-2244.4 5411.3,-4886.9 7153.8,-7932.6"
         style="fill:#347bfa;fill-opacity:1;fill-rule:evenodd;stroke:none"
         id="path18" />
      <path
         d="m 32913.8,20000 c 3451.7,0 6250,-2798.2 6250,-6250 0,-3451.8 -2798.3,-6250 -6250,-6250 -3451.8,0 -6250,2798.2 -6250,6250 0,3451.8 2798.2,6250 6250,6250"
         style="fill:#e9f3fc;fill-opacity:1;fill-rule:evenodd;stroke:none"
         id="path20" />
      <path
         d="m 32288.8,16875 v -6250 c 0,-345 280,-625 625,-625 345,0 625,280 625,625 v 6250 c 0,345 -280,625 -625,625 -345,0 -625,-280 -625,-625"
         style="fill:#347bfa;fill-opacity:1;fill-rule:evenodd;stroke:none"
         id="path22" />
      <path
         d="m 36038.8,14375 h -6250 c -345,0 -625,-280 -625,-625 0,-345 280,-625 625,-625 h 6250 c 345,0 625,280 625,625 0,345 -280,625 -625,625"
         style="fill:#347bfa;fill-opacity:1;fill-rule:evenodd;stroke:none"
         id="path24" />
      <path
         d="m 10756.2,30801.3 v -8861.9 c 827.6,1501.8 2151.3,2683.7 3757.6,3333.1 445.6,180 887.5,358.7 1281.2,518.1 236.3,95 390.6,324.4 390.6,579.4 0,254.4 -154.3,483.7 -390.6,579.4 -393.1,158.7 -834.4,336.9 -1279.4,516.8 -1607.5,649.4 -2931.2,1831.9 -3759.4,3335.1"
         style="fill:#a4bbdb;fill-opacity:1;fill-rule:evenodd;stroke:none"
         id="path26" />
      <path
         d="m 15312.5,26548.1 c 236.3,95.6 391.3,325 391.3,580 0,254.4 -155,483.8 -391.3,579.4 -393.1,158.7 -834.4,336.9 -1279.4,516.9 -1885.6,761.8 -3380.6,2256.9 -4143.1,4142.5 -180.62,446.2 -359.37,888.1 -518.75,1282.5 -95.62,236.2 -325,390.6 -579.37,390.6 -255,0 -484.38,-154.4 -579.38,-390.6 C 8053.13,33256.3 7875,32815 7695.63,32370 6933.75,30485 5438.75,28989.4 3553.75,28226.9 c -446.87,-180.7 -890,-360 -1285,-519.4 -235.62,-95.6 -390.62,-325 -390.62,-579.4 0,-255 155,-484.4 390.62,-579.4 395,-160 838.13,-339.3 1285.63,-520 1885,-762.5 3380,-2258.1 4141.25,-4143.7 180,-444.4 358.12,-885 516.25,-1278.1 95.62,-236.3 325,-390.6 580,-390.6 254.37,0 483.75,154.3 579.37,390.6 158.75,393.7 337.5,835.6 517.5,1281.2 762.55,1885 2257.55,3380 4142.55,4142.5 446.2,180 887.5,358.8 1281.2,517.5"
         style="fill:#e9f3fc;fill-opacity:1;fill-rule:evenodd;stroke:none"
         id="path28" />
      <path
         d="m 22036.9,15410 c 187.5,75.6 309.4,256.9 309.4,458.7 0,201.9 -121.9,383.2 -309.4,458.8 0,0 -0.6,0 -0.6,0.6 -1723.2,696.3 -3090.1,2062.5 -3786.9,3785.6 -0.6,1.3 -0.6,1.9 -1.3,3.2 -75.6,186.8 -256.9,309.3 -458.7,309.3 -201.9,0 -383.1,-122.5 -458.8,-309.3 v -0.6 c -696.2,-1723.2 -2062.5,-3090.1 -3786.2,-3786.9 -0.6,-0.7 -1.9,-0.7 -2.5,-1.3 -187.5,-75.6 -310,-257.5 -310,-459.4 0,-201.8 122.5,-383.7 310,-459.3 1.2,-0.7 2.5,-1.3 3.7,-1.3 1722.5,-696.9 3088.8,-2063.7 3785,-3786.8 0,-0.7 0,-1.3 0.7,-1.9 75.6,-186.3 256.8,-308.8 458.1,-308.8 201.2,0 382.5,121.9 458.1,308.8 0.6,1.2 0.6,1.9 1.3,2.5 696.8,1723.7 2063.1,3090.6 3786.8,3787.5 0.7,0 1.3,0.6 1.3,0.6"
         style="fill:#a4bbdb;fill-opacity:1;fill-rule:evenodd;stroke:none"
         id="path30" />
      <path
         d="m 21508.8,16050.6 c 183.7,75 304.3,253.8 304.3,452.5 0,198.8 -120.6,377.5 -305,451.9 0,0 0,0 -0.6,0 -1697.5,686.3 -3044.4,2032.5 -3730.6,3730 -0.7,1.2 -0.7,1.9 -1.3,3.1 -74.3,184.4 -253.1,305 -451.8,305 -198.8,0 -377.5,-120.6 -451.9,-305 l -0.6,-0.6 c -685.7,-1697.5 -2031.9,-3044.4 -3729.4,-3730.6 -1.3,-0.7 -1.9,-1.3 -3.2,-1.3 -184.3,-75 -304.9,-253.7 -304.9,-452.5 0,-199.4 120.6,-378.1 304.9,-452.5 1.3,-0.6 2.5,-1.2 3.8,-1.9 1697.5,-686.2 3043.1,-2033.1 3728.8,-3730.6 0.6,-0.6 0.6,-0.6 0.6,-1.2 74.4,-184.4 253.1,-304.4 451.9,-304.4 198.1,0 376.8,120 451.2,304.4 0.6,0.6 0.6,1.2 1.2,2.5 686.3,1698.1 2032.6,3044.3 3730.7,3731.2 0.6,0 1.2,0 1.9,0"
         style="fill:#e9f3fc;fill-opacity:1;fill-rule:evenodd;stroke:none"
         id="path32" />
    </g>
  </g>
</svg>
